<?xml version="1.0" encoding="iso-8859-1"?>
<!-- Generator: Adobe Illustrator 19.0.0, SVG Export Plug-In . SVG Version: 6.00 Build 0)  -->
<svg version="1.1" id="Layer_1" xmlns="http://www.w3.org/2000/svg" xmlns:xlink="http://www.w3.org/1999/xlink" x="0px" y="0px"
	 viewBox="0 0 512.94 512.94" style="enable-background:new 0 0 512.94 512.94;" xml:space="preserve">
<g>
	<g>
		<path d="M312,296.47h-7.584c-11.068,0-20.416-8.808-20.416-19.236V224.47c0-2.212-1.788-4-4-4c-2.212,0-4,1.788-4,4v52.764
			c0,14.764,13.012,27.236,28.416,27.236H312c2.212,0,4-1.788,4-4C316,298.258,314.212,296.47,312,296.47z"/>
	</g>
</g>
<g>
	<g>
		<path d="M176,204.47h-19.86c-13.084,0-24.14-10.776-24.14-23.532V108.25c0-12.888,11.056-23.78,24.14-23.78H176
			c2.212,0,4-1.788,4-4s-1.788-4-4-4h-19.86c-17.42,0-32.14,14.556-32.14,31.78v72.688c0,17.092,14.72,31.532,32.14,31.532H176
			c2.212,0,4-1.788,4-4C180,206.258,178.212,204.47,176,204.47z"/>
	</g>
</g>
<g>
	<g>
		<path d="M128,180.47H68.516C55.228,180.47,44,169.694,44,156.938v-24.604c0-12.712,11.456-23.864,24.516-23.864H128
			c2.212,0,4-1.788,4-4s-1.788-4-4-4H68.516C50.892,100.47,36,115.058,36,132.334v24.604c0,17.092,14.892,31.532,32.516,31.532H128
			c2.212,0,4-1.788,4-4C132,182.258,130.212,180.47,128,180.47z"/>
	</g>
</g>
<g>
	<g>
		<path d="M464,152.47H364c-2.212,0-4,1.788-4,4c0,2.212,1.788,4,4,4h100c2.212,0,4-1.788,4-4
			C468,154.258,466.212,152.47,464,152.47z"/>
	</g>
</g>
<g>
	<g>
		<path d="M412,220.47c-2.212,0-4,1.788-4,4v200c0,2.212,1.788,4,4,4c2.212,0,4-1.788,4-4v-200
			C416,222.258,414.212,220.47,412,220.47z"/>
	</g>
</g>
<g>
	<g>
		<path d="M312,220.47c-2.212,0-4,1.788-4,4v200c0,2.212,1.788,4,4,4c2.212,0,4-1.788,4-4v-200
			C316,222.258,314.212,220.47,312,220.47z"/>
	</g>
</g>
<g>
	<g>
		<path d="M411.064,420.47h-100c-6.412,0-11.064,5.048-11.064,12v8c0,6.952,4.652,12,11.064,12h100c6.888,0,12.936-5.608,12.936-12
			v-8C424,426.078,417.956,420.47,411.064,420.47z M416,440.47c0,1.98-2.492,4-4.936,4h-100c-2.916,0-3.064-3.332-3.064-4v-8
			c0-0.668,0.148-4,3.064-4h100c2.444,0,4.936,2.02,4.936,4V440.47z"/>
	</g>
</g>
<g>
	<g>
		<path d="M464,104.47H364c-2.212,0-4,1.788-4,4s1.788,4,4,4h100c2.212,0,4-1.788,4-4S466.212,104.47,464,104.47z"/>
	</g>
</g>
<g>
	<g>
		<path d="M464,128.47H364c-2.212,0-4,1.788-4,4c0,2.212,1.788,4,4,4h100c2.212,0,4-1.788,4-4
			C468,130.258,466.212,128.47,464,128.47z"/>
	</g>
</g>
<g>
	<g>
		<path d="M464,176.47H364c-2.212,0-4,1.788-4,4c0,2.212,1.788,4,4,4h100c2.212,0,4-1.788,4-4
			C468,178.258,466.212,176.47,464,176.47z"/>
	</g>
</g>
<g>
	<g>
		<path d="M429.064,60.47H204.86c-19.98,0-36.86,16.6-36.86,36.248v95.752c0,19.516,16.88,36,36.86,36h224.204
			c46.248,0,83.876-37.684,83.876-84S475.312,60.47,429.064,60.47z M429.064,220.47H204.86c-15.644,0-28.86-12.824-28.86-28V96.718
			c0-15.312,13.216-28.248,28.86-28.248h224.204c41.836,0,75.876,34.092,75.876,76S470.9,220.47,429.064,220.47z"/>
	</g>
</g>
<g>
	<g>
		<path d="M38.168,140.726c2.196-0.244,3.784-2.22,3.54-4.416c-0.244-2.196-2.192-3.752-4.416-3.54l-33.728,3.724
			C1.536,136.718,0,138.43,0,140.47v8.168c0,2.024,1.512,3.732,3.524,3.972l32,3.832c0.164,0.02,0.324,0.028,0.48,0.028
			c1.996,0,3.724-1.492,3.968-3.52c0.26-2.196-1.304-4.184-3.496-4.448L8,145.09v-1.036L38.168,140.726z"/>
	</g>
</g>
<g>
</g>
<g>
</g>
<g>
</g>
<g>
</g>
<g>
</g>
<g>
</g>
<g>
</g>
<g>
</g>
<g>
</g>
<g>
</g>
<g>
</g>
<g>
</g>
<g>
</g>
<g>
</g>
<g>
</g>
</svg>
