<?xml version="1.0" encoding="iso-8859-1"?>
<!-- Generator: Adobe Illustrator 19.0.0, SVG Export Plug-In . SVG Version: 6.00 Build 0)  -->
<svg version="1.1" id="Layer_1" xmlns="http://www.w3.org/2000/svg" xmlns:xlink="http://www.w3.org/1999/xlink" x="0px" y="0px"
	 viewBox="0 0 516.014 516.014" style="enable-background:new 0 0 516.014 516.014;" xml:space="preserve">
<g>
	<g>
		<path d="M372.859,174.122c-4.504-4.504-10.492-6.984-16.86-6.984c-6.368,0-12.36,2.48-16.868,6.984
			c-9.296,9.3-9.296,24.432,0,33.728c4.504,4.504,10.496,6.984,16.864,6.984c6.368,0,12.36-2.48,16.864-6.984
			C382.155,198.55,382.155,183.418,372.859,174.122z M367.199,202.194c-5.984,5.988-16.428,5.984-22.412,0
			c-6.176-6.18-6.176-16.236,0-22.416c2.992-2.992,6.972-4.64,11.208-4.64c4.232,0,8.212,1.648,11.204,4.64
			C373.375,185.958,373.375,196.014,367.199,202.194z"/>
	</g>
</g>
<g>
	<g>
		<path d="M515.203,182.122l-7.6-10.036l4.916-11.584c0.656-1.54,0.284-3.32-0.932-4.468l-9.144-8.648l2.944-12.232
			c0.392-1.628-0.272-3.324-1.66-4.256l-10.448-7.02l0.876-12.556c0.116-1.668-0.82-3.228-2.34-3.92l-11.468-5.188l-1.208-12.532
			c-0.16-1.66-1.34-3.052-2.952-3.48l-14.404-3.832c-2.144-0.552-4.328,0.704-4.896,2.84c-0.568,2.136,0.7,4.324,2.836,4.896
			l11.716,3.116l1.168,12.068c0.14,1.42,1.028,2.668,2.332,3.256l11.04,4.996l-0.84,12.088c-0.1,1.424,0.572,2.8,1.76,3.596
			l10.056,6.756l-2.836,11.776c-0.336,1.396,0.1,2.86,1.14,3.844l8.808,8.328l-4.736,11.156c-0.56,1.316-0.368,2.836,0.496,3.976
			l7.32,9.664l-6.504,10.232c-0.772,1.208-0.836,2.74-0.168,4.004l5.64,10.736l-8.084,9.028c-0.956,1.064-1.268,2.56-0.82,3.92
			l3.8,11.508l-9.468,7.576c-1.116,0.9-1.672,2.32-1.452,3.736l1.848,11.976l-10.588,5.896c-1.252,0.696-2.036,2.012-2.056,3.44
			l-0.164,12.12l-11.42,4.068c-1.348,0.48-2.34,1.648-2.596,3.06l-2.152,11.932l-11.932,2.152c-1.412,0.252-2.58,1.244-3.06,2.596
			l-4.068,11.416l-12.116,0.16c-1.432,0.02-2.744,0.804-3.44,2.056l-5.896,10.584l-11.976-1.844
			c-1.424-0.216-2.84,0.336-3.732,1.452l-7.572,9.46l-11.508-3.796c-1.36-0.452-2.856-0.136-3.924,0.82l-9.024,8.084l-10.732-5.636
			c-1.268-0.672-2.8-0.6-4.008,0.164l-10.228,6.504l-9.664-7.32c-1.144-0.868-2.66-1.048-3.98-0.496l-11.156,4.74l-8.332-8.804
			c-0.984-1.044-2.444-1.472-3.84-1.14l-11.784,2.836l-6.756-10.06c-0.8-1.184-2.16-1.844-3.6-1.76l-12.092,0.848l-4.996-11.044
			c-0.588-1.304-1.832-2.196-3.256-2.332l-12.068-1.172l-3.116-11.716c-0.568-2.136-2.748-3.396-4.896-2.84
			c-2.136,0.572-3.404,2.764-2.836,4.896l3.824,14.408c0.432,1.616,1.816,2.792,3.48,2.952l12.528,1.216l5.188,11.468
			c0.688,1.524,2.256,2.432,3.924,2.344l12.56-0.88l7.016,10.444c0.932,1.388,2.632,2.044,4.256,1.66l12.24-2.944l8.652,9.144
			c1.148,1.208,2.924,1.572,4.472,0.932l11.584-4.92l10.032,7.6c0.712,0.54,1.564,0.812,2.416,0.812
			c0.744,0,1.492-0.208,2.144-0.612l10.62-6.752l11.14,5.856c1.48,0.772,3.284,0.552,4.532-0.564l9.368-8.4l11.948,3.944
			c1.58,0.528,3.328,0.008,4.376-1.296l7.864-9.828l12.44,1.916c1.652,0.248,3.288-0.544,4.104-2.008l6.124-10.996l12.584-0.164
			c1.672-0.024,3.156-1.08,3.716-2.66l4.224-11.86l12.388-2.232c1.644-0.3,2.932-1.584,3.228-3.228l2.232-12.388l11.86-4.224
			c1.576-0.564,2.636-2.044,2.66-3.716l0.168-12.588l10.996-6.12c1.464-0.816,2.264-2.452,2.008-4.104l-1.92-12.44l9.832-7.864
			c1.304-1.048,1.824-2.796,1.3-4.38l-3.948-11.948l8.396-9.376c1.116-1.244,1.34-3.052,0.564-4.528l-5.856-11.14l6.752-10.62
			C516.287,185.27,516.211,183.454,515.203,182.122z"/>
	</g>
</g>
<g>
	<g>
		<path d="M474.659,72.322c-65.432-65.416-171.892-65.424-237.324,0c-65.428,65.428-65.428,171.9,0,237.328
			c0.748,0.752,1.768,1.172,2.828,1.172s2.076-0.424,2.828-1.172l45.256-45.26c1.564-1.564,1.564-4.092,0-5.656
			c-1.564-1.564-4.092-1.564-5.656,0l-42.392,42.396c-59.496-62.52-58.568-161.784,2.792-223.152
			c61.36-61.364,160.628-62.292,223.148-2.792l-59.272,59.276c-1.564,1.564-1.564,4.092,0,5.656c1.564,1.564,4.092,1.564,5.656,0
			l62.136-62.14c0.752-0.748,1.172-1.764,1.172-2.828C475.831,74.086,475.411,73.074,474.659,72.322z"/>
	</g>
</g>
<g>
	<g>
		<path d="M241.959,305.222c-1.564-1.564-4.092-1.564-5.656,0L64.931,476.594c-10.916,10.916-28.684,10.916-39.6,0l-9.148-9.148
			c-10.916-10.916-10.916-28.68,0-39.596l114.624-114.624c1.564-1.564,1.564-4.092,0-5.656c-1.564-1.564-4.092-1.564-5.656,0
			L10.527,422.19c-14.036,14.036-14.036,36.876,0,50.912l9.148,9.148c6.772,6.772,15.812,10.508,25.456,10.508
			c9.64,0,18.684-3.732,25.456-10.508l171.372-171.372C243.523,309.314,243.523,306.786,241.959,305.222z"/>
	</g>
</g>
<g>
	<g>
		<path d="M428.299,156.958c-0.94-2-3.324-2.848-5.324-1.916c-2,0.94-2.856,3.324-1.916,5.324
			c12.864,27.34,7.144,60.076-14.232,81.456c-28.028,28.028-73.636,28.028-101.672,0c-28.028-28.032-28.028-73.64,0-101.672
			c28.032-28.028,73.64-28.028,101.672,0c1.564,1.564,4.092,1.564,5.656,0c1.564-1.564,1.564-4.092,0-5.656
			c-31.148-31.148-81.832-31.148-112.984,0c-31.148,31.148-31.148,81.836,0,112.984c15.58,15.576,36.036,23.364,56.496,23.364
			c20.46-0.004,40.916-7.792,56.488-23.364C436.239,223.718,442.595,187.342,428.299,156.958z"/>
	</g>
</g>
<g>
	<g>
		<path d="M196.643,160.226c1.564-1.564,1.564-4.092,0-5.656c-1.564-1.564-4.092-1.564-5.656,0l-64.16,64.164
			c-26.512,26.512-26.512,69.652,0,96.164l52.724,52.732c0.78,0.78,1.804,1.172,2.828,1.172c1.024,0,2.048-0.392,2.832-1.172
			c1.564-1.564,1.564-4.092,0-5.656l-52.728-52.732c-23.392-23.396-23.392-61.456,0-84.852L196.643,160.226z"/>
	</g>
</g>
<g>
	<g>
		<path d="M186.363,252.014c-1.564-1.564-4.092-1.564-5.656,0l-39.304,39.304c-1.564,1.564-1.564,4.092,0,5.656
			c0.78,0.78,1.804,1.172,2.828,1.172s2.048-0.392,2.828-1.172l39.304-39.304C187.927,256.106,187.927,253.578,186.363,252.014z"/>
	</g>
</g>
<g>
</g>
<g>
</g>
<g>
</g>
<g>
</g>
<g>
</g>
<g>
</g>
<g>
</g>
<g>
</g>
<g>
</g>
<g>
</g>
<g>
</g>
<g>
</g>
<g>
</g>
<g>
</g>
<g>
</g>
</svg>
